<svg width="27" height="19" viewBox="0 0 27 19" fill="none" xmlns="http://www.w3.org/2000/svg">
<path fill-rule="evenodd" clip-rule="evenodd" d="M27 9.34103C27 8.6919 26.4151 8.16567 25.6935 8.16567H1.30645C0.584917 8.16567 0 8.6919 0 9.34103C0 9.99016 0.584917 10.5164 1.30645 10.5164H25.6935C26.4151 10.5164 27 9.99016 27 9.34103Z" fill="white"/>
<path fill-rule="evenodd" clip-rule="evenodd" d="M27 1.5053C27 0.856167 26.4151 0.329941 25.6935 0.329941H1.30645C0.584917 0.329941 0 0.856167 0 1.5053C0 2.15443 0.584917 2.68066 1.30645 2.68066H25.6935C26.4151 2.68066 27 2.15443 27 1.5053Z" fill="white"/>
<path fill-rule="evenodd" clip-rule="evenodd" d="M27 17.1768C27 16.5276 26.4151 16.0014 25.6935 16.0014H1.30645C0.584917 16.0014 0 16.5276 0 17.1768C0 17.8259 0.584917 18.3521 1.30645 18.3521H25.6935C26.4151 18.3521 27 17.8259 27 17.1768Z" fill="white"/>
</svg>
